<?xml version="1.0" encoding="utf-8"?>
<!-- Generator: Adobe Illustrator 26.0.2, SVG Export Plug-In . SVG Version: 6.00 Build 0)  -->
<svg version="1.1" id="图层_1" xmlns="http://www.w3.org/2000/svg" xmlns:xlink="http://www.w3.org/1999/xlink" x="0px" y="0px"
	 viewBox="0 0 800 800" style="enable-background:new 0 0 800 800;" xml:space="preserve">
<style type="text/css">
	.st0{display:none;}
	.st1{font-family:'Monoton-Regular';}
	.st2{font-size:75px;}
	.st3{letter-spacing:1;}
	.st4{font-family:'HarlowSolid';}
	.st5{display:inline;}
</style>
<text transform="matrix(1 0 0 1 71.0544 270.3896)" class="st0 st1 st2 st3">007aLS</text>
<text transform="matrix(1 0 0 1 471.6104 273.026)" class="st0 st4 st2 st3">007aLS</text>
<g class="st0">
	<path class="st5" d="M79.62,377.33c-2.54-5.03-3.81-10.77-3.81-17.21s1.27-12.18,3.81-17.21c2.54-5.03,6.03-8.91,10.47-11.65
		c4.44-2.73,9.45-4.1,15.01-4.1s10.57,1.37,15.01,4.1c4.44,2.73,7.93,6.62,10.47,11.65c2.54,5.03,3.81,10.77,3.81,17.21
		s-1.27,12.18-3.81,17.21c-2.54,5.03-6.03,8.91-10.47,11.65c-4.44,2.73-9.45,4.1-15.01,4.1s-10.57-1.37-15.01-4.1
		C85.65,386.25,82.16,382.36,79.62,377.33z M80.47,347.73c-1.34,3.8-2.01,7.93-2.01,12.4s0.67,8.6,2.01,12.4
		c1.34,3.8,3.19,7,5.55,9.61c2.36,2.61,5.18,4.65,8.46,6.12c3.28,1.46,6.83,2.2,10.64,2.2s7.35-0.73,10.64-2.2s6.1-3.5,8.46-6.12
		c2.36-2.61,4.21-5.82,5.55-9.61c1.34-3.8,2.01-7.93,2.01-12.4s-0.67-8.6-2.01-12.4c-1.34-3.8-3.19-7-5.55-9.61
		c-2.36-2.61-5.18-4.65-8.46-6.12s-6.83-2.2-10.64-2.2s-7.35,0.73-10.64,2.2c-3.28,1.46-6.1,3.5-8.46,6.12
		C83.66,340.73,81.81,343.93,80.47,347.73z M126.04,345.57c2.06,4.21,3.09,9.06,3.09,14.56s-1.03,10.35-3.09,14.56
		c-2.06,4.21-4.91,7.45-8.55,9.72c-3.64,2.27-7.76,3.41-12.38,3.41s-8.74-1.14-12.38-3.41c-3.64-2.27-6.49-5.51-8.55-9.72
		c-2.06-4.21-3.09-9.06-3.09-14.56s1.03-10.35,3.09-14.56c2.06-4.21,4.91-7.45,8.55-9.72c3.64-2.27,7.76-3.41,12.38-3.41
		s8.74,1.14,12.38,3.41C121.13,338.11,123.98,341.35,126.04,345.57z M89.68,341.92c-3.97,4.57-5.95,10.63-5.95,18.2
		c0,7.57,1.98,13.64,5.95,18.2c3.97,4.57,9.11,6.85,15.44,6.85c6.32,0,11.47-2.28,15.44-6.85c3.97-4.56,5.95-10.63,5.95-18.2
		c0-7.57-1.98-13.64-5.95-18.2c-3.97-4.56-9.11-6.85-15.44-6.85C98.79,335.07,93.64,337.36,89.68,341.92z M118.68,343.79
		c3.45,4.05,5.18,9.5,5.18,16.33c0,6.84-1.73,12.28-5.18,16.33c-3.45,4.05-7.98,6.08-13.57,6.08c-5.59,0-10.11-2.03-13.57-6.08
		c-3.46-4.05-5.18-9.5-5.18-16.33c0-6.84,1.73-12.28,5.18-16.33c3.45-4.05,7.98-6.08,13.57-6.08
		C110.7,337.71,115.22,339.74,118.68,343.79z M93.41,345.64C90.47,349.17,89,354,89,360.12c0,6.13,1.47,10.96,4.41,14.48
		c2.94,3.53,6.84,5.29,11.7,5.29c4.86,0,8.76-1.76,11.7-5.29c2.94-3.53,4.41-8.35,4.41-14.48c0-6.13-1.47-10.96-4.41-14.48
		c-2.94-3.53-6.84-5.29-11.7-5.29C100.25,340.35,96.35,342.11,93.41,345.64z M114.94,347.51c2.43,3.02,3.64,7.22,3.64,12.62
		c0,5.4-1.21,9.6-3.64,12.62s-5.71,4.52-9.83,4.52c-4.13,0-7.4-1.51-9.83-4.52c-2.43-3.02-3.64-7.22-3.64-12.62
		c0-5.4,1.21-9.6,3.64-12.62c2.43-3.01,5.71-4.52,9.83-4.52C109.24,342.98,112.51,344.49,114.94,347.51z M97.15,349.36
		c-1.92,2.49-2.87,6.08-2.87,10.77s0.96,8.28,2.87,10.77s4.57,3.74,7.97,3.74c3.39,0,6.05-1.25,7.97-3.74
		c1.92-2.49,2.87-6.08,2.87-10.77s-0.96-8.28-2.87-10.77c-1.92-2.49-4.57-3.74-7.97-3.74C101.72,345.62,99.06,346.87,97.15,349.36z"
		/>
	<path class="st5" d="M143.37,377.33c-2.54-5.03-3.81-10.77-3.81-17.21s1.27-12.18,3.81-17.21c2.54-5.03,6.03-8.91,10.47-11.65
		c4.44-2.73,9.45-4.1,15.01-4.1s10.57,1.37,15.01,4.1c4.44,2.73,7.93,6.62,10.47,11.65c2.54,5.03,3.81,10.77,3.81,17.21
		s-1.27,12.18-3.81,17.21c-2.54,5.03-6.03,8.91-10.47,11.65c-4.44,2.73-9.45,4.1-15.01,4.1s-10.57-1.37-15.01-4.1
		C149.4,386.25,145.91,382.36,143.37,377.33z M144.21,347.73c-1.34,3.8-2.01,7.93-2.01,12.4s0.67,8.6,2.01,12.4
		c1.34,3.8,3.19,7,5.55,9.61c2.36,2.61,5.18,4.65,8.46,6.12c3.28,1.46,6.83,2.2,10.64,2.2s7.35-0.73,10.64-2.2s6.1-3.5,8.46-6.12
		c2.36-2.61,4.21-5.82,5.55-9.61c1.34-3.8,2.01-7.93,2.01-12.4s-0.67-8.6-2.01-12.4c-1.34-3.8-3.19-7-5.55-9.61
		c-2.36-2.61-5.18-4.65-8.46-6.12s-6.83-2.2-10.64-2.2s-7.35,0.73-10.64,2.2c-3.28,1.46-6.1,3.5-8.46,6.12
		C147.4,340.73,145.55,343.93,144.21,347.73z M189.79,345.57c2.06,4.21,3.09,9.06,3.09,14.56s-1.03,10.35-3.09,14.56
		c-2.06,4.21-4.91,7.45-8.55,9.72c-3.64,2.27-7.76,3.41-12.38,3.41s-8.74-1.14-12.38-3.41c-3.64-2.27-6.49-5.51-8.55-9.72
		c-2.06-4.21-3.09-9.06-3.09-14.56s1.03-10.35,3.09-14.56c2.06-4.21,4.91-7.45,8.55-9.72c3.64-2.27,7.76-3.41,12.38-3.41
		s8.74,1.14,12.38,3.41C184.87,338.11,187.72,341.35,189.79,345.57z M153.42,341.92c-3.97,4.57-5.95,10.63-5.95,18.2
		c0,7.57,1.98,13.64,5.95,18.2c3.97,4.57,9.11,6.85,15.44,6.85c6.32,0,11.47-2.28,15.44-6.85c3.97-4.56,5.95-10.63,5.95-18.2
		c0-7.57-1.98-13.64-5.95-18.2c-3.97-4.56-9.11-6.85-15.44-6.85C162.54,335.07,157.39,337.36,153.42,341.92z M182.43,343.79
		c3.45,4.05,5.18,9.5,5.18,16.33c0,6.84-1.73,12.28-5.18,16.33c-3.45,4.05-7.98,6.08-13.57,6.08c-5.59,0-10.11-2.03-13.57-6.08
		c-3.46-4.05-5.18-9.5-5.18-16.33c0-6.84,1.73-12.28,5.18-16.33c3.45-4.05,7.98-6.08,13.57-6.08
		C174.45,337.71,178.97,339.74,182.43,343.79z M157.16,345.64c-2.94,3.53-4.41,8.36-4.41,14.48c0,6.13,1.47,10.96,4.41,14.48
		c2.94,3.53,6.84,5.29,11.7,5.29c4.86,0,8.76-1.76,11.7-5.29c2.94-3.53,4.41-8.35,4.41-14.48c0-6.13-1.47-10.96-4.41-14.48
		c-2.94-3.53-6.84-5.29-11.7-5.29C164,340.35,160.1,342.11,157.16,345.64z M178.69,347.51c2.43,3.02,3.64,7.22,3.64,12.62
		c0,5.4-1.21,9.6-3.64,12.62s-5.71,4.52-9.83,4.52c-4.13,0-7.4-1.51-9.83-4.52c-2.43-3.02-3.64-7.22-3.64-12.62
		c0-5.4,1.21-9.6,3.64-12.62c2.43-3.01,5.71-4.52,9.83-4.52C172.98,342.98,176.26,344.49,178.69,347.51z M160.89,349.36
		c-1.92,2.49-2.87,6.08-2.87,10.77s0.96,8.28,2.87,10.77s4.57,3.74,7.97,3.74c3.39,0,6.05-1.25,7.97-3.74
		c1.92-2.49,2.87-6.08,2.87-10.77s-0.96-8.28-2.87-10.77c-1.92-2.49-4.57-3.74-7.97-3.74C165.46,345.62,162.81,346.87,160.89,349.36
		z"/>
	<path class="st5" d="M223.25,329.8l-0.51,2.64h-22.23v-2.64H223.25z M222.08,335.07l-0.62,2.64h-20.95v-2.64H222.08z
		 M220.84,340.35l-0.62,2.64h-19.7v-2.64H220.84z M225.12,329.8h2.71l-14.94,60.64h-2.71L225.12,329.8z M230.54,329.8h2.75
		l-14.94,60.64h-2.75L230.54,329.8z M236,329.8h2.71l-14.94,60.64h-2.71L236,329.8z M241.42,329.8h2.75l-14.94,60.64h-2.75
		L241.42,329.8z"/>
	<path class="st5" d="M302.14,364.44v26h-2.64v-26c0-4.98-1.16-9.43-3.48-13.35c-2.32-3.92-5.48-6.95-9.48-9.08
		c-4-2.14-8.47-3.2-13.4-3.2c-4.74,0-9.07,1.14-13,3.41c-3.93,2.27-7.02,5.34-9.27,9.21c-2.25,3.87-3.37,8.09-3.37,12.65
		c0,3,0.48,5.85,1.45,8.55c0.96,2.7,2.28,5.05,3.96,7.07c1.67,2.01,3.6,3.75,5.79,5.22c2.18,1.46,4.54,2.58,7.07,3.33
		c2.53,0.76,5.1,1.14,7.71,1.14c2.88,0,5.62-0.55,8.2-1.65v2.71c-2.71,0.95-5.49,1.43-8.35,1.43c-2.95,0-5.83-0.42-8.62-1.25
		c-2.8-0.83-5.38-2.06-7.76-3.68c-2.38-1.62-4.47-3.54-6.28-5.75c-1.81-2.21-3.22-4.79-4.25-7.75c-1.03-2.95-1.54-6.08-1.54-9.38
		c0-3.78,0.71-7.39,2.14-10.82c1.43-3.43,3.38-6.4,5.86-8.9c2.48-2.5,5.48-4.49,9.01-5.97s7.28-2.22,11.26-2.22
		c4.05,0,7.86,0.68,11.43,2.05c3.56,1.37,6.64,3.27,9.23,5.69c2.59,2.43,4.63,5.41,6.12,8.95
		C301.39,356.41,302.14,360.27,302.14,364.44z M296.86,364.44v26h-2.64v-26c0-4.03-0.92-7.6-2.77-10.71
		c-1.84-3.11-4.36-5.5-7.56-7.16c-3.2-1.66-6.79-2.49-10.77-2.49c-3.78,0-7.24,0.9-10.36,2.69c-3.13,1.79-5.57,4.22-7.34,7.27
		c-1.77,3.05-2.65,6.4-2.65,10.03c0,3.13,0.57,5.98,1.72,8.55c1.15,2.58,2.69,4.69,4.63,6.35c1.94,1.66,4.15,2.95,6.63,3.86
		c2.48,0.92,5.07,1.37,7.78,1.37c2.76,0,5.47-0.57,8.13-1.72v2.67c-2.78,1.05-5.52,1.57-8.2,1.57c-4.22,0-8.11-0.95-11.65-2.86
		c-3.54-1.9-6.37-4.6-8.5-8.09c-2.12-3.49-3.19-7.4-3.19-11.72c0-3.08,0.59-6.01,1.78-8.79s2.79-5.19,4.82-7.21
		c2.03-2.03,4.47-3.64,7.32-4.83c2.86-1.2,5.88-1.79,9.08-1.79c4.47,0,8.5,0.95,12.1,2.86s6.44,4.61,8.51,8.13
		C295.83,355.95,296.86,359.95,296.86,364.44z M291.59,364.44v26h-2.64v-26c0-4.61-1.48-8.28-4.43-11
		c-2.95-2.72-6.75-4.08-11.39-4.08c-4.3,0-7.89,1.43-10.77,4.28c-2.88,2.86-4.32,6.34-4.32,10.44c0,2.49,0.43,4.72,1.3,6.7
		c0.87,1.98,2.04,3.56,3.53,4.76c1.49,1.2,3.16,2.11,5,2.73c1.84,0.62,3.79,0.93,5.84,0.93c2.78,0,5.43-0.65,7.95-1.94v2.78
		c-2.64,1.1-5.3,1.65-7.98,1.65c-2.42,0-4.71-0.37-6.88-1.12c-2.17-0.74-4.11-1.83-5.82-3.26c-1.71-1.43-3.06-3.28-4.06-5.57
		c-1-2.28-1.5-4.84-1.5-7.67c0-4.81,1.7-8.9,5.11-12.29c3.41-3.38,7.61-5.07,12.62-5.07c3.52,0,6.67,0.71,9.45,2.14
		c2.78,1.43,4.98,3.5,6.59,6.21S291.59,360.9,291.59,364.44z M283.68,364.44c0-3.12-0.96-5.54-2.89-7.25
		c-1.93-1.71-4.48-2.56-7.65-2.56c-2.69,0-4.99,0.93-6.92,2.78c-1.93,1.86-2.89,4.08-2.89,6.67c0,1.46,0.2,2.78,0.59,3.94
		c0.39,1.16,0.92,2.12,1.59,2.89c0.67,0.77,1.47,1.4,2.4,1.9c0.93,0.5,1.9,0.86,2.91,1.08s2.09,0.33,3.24,0.33
		c2.78,0,5.32-0.68,7.62-2.05v2.64c-2.37,1.25-4.92,1.87-7.65,1.87c-1.76,0-3.41-0.24-4.96-0.71c-1.55-0.48-2.96-1.2-4.23-2.16
		c-1.27-0.96-2.28-2.28-3.02-3.96c-0.74-1.67-1.12-3.59-1.12-5.77c0-3.37,1.18-6.23,3.55-8.57c2.37-2.34,5.33-3.52,8.9-3.52
		c3.93,0,7.11,1.1,9.54,3.31s3.64,5.25,3.64,9.14v26h-2.64V364.44z"/>
	<path class="st5" d="M310.39,329.8h2.64v60.64h-2.64V329.8z M315.66,329.8h2.64v60.64h-2.64V329.8z M320.94,329.8h2.64v60.64h-2.64
		V329.8z M326.21,329.8h2.64v47.46h21.09v2.64h-21.09v2.64h21.09v2.64h-21.09v2.64h21.09v2.64h-23.73V329.8z"/>
	<path class="st5" d="M380.34,353.53h-4.43c-1.88,0-3.24-0.48-4.07-1.45s-1.25-2.24-1.25-3.83c0-3.52,2.62-5.27,7.87-5.27
		c4.93,0,8.64,0.73,11.13,2.2l-2.12,1.61c-1.71-0.78-4.71-1.17-9.01-1.17c-2.1,0-3.51,0.23-4.23,0.7c-0.72,0.46-1.08,1.11-1.08,1.94
		c0,0.83,0.2,1.48,0.59,1.94c0.39,0.46,1.11,0.7,2.16,0.7h4.54c3.29,0,6.27,0.56,8.92,1.68c2.65,1.12,4.83,2.66,6.54,4.6
		c1.71,1.94,3.02,4.17,3.92,6.7c0.9,2.53,1.35,5.23,1.35,8.11c0,2.34-0.33,4.57-0.99,6.67c-0.66,2.1-1.65,4.03-2.98,5.79
		c-1.33,1.76-2.93,3.28-4.8,4.56c-1.87,1.28-4.09,2.28-6.67,3c-2.58,0.72-5.37,1.08-8.37,1.08c-4.71,0-9.12-0.71-13.24-2.14
		c-4.11-1.43-7.54-3.42-10.27-5.99l2.12-1.57c2.49,2.25,5.61,3.99,9.36,5.22c3.75,1.23,7.76,1.85,12.03,1.85
		c3.34,0,6.37-0.48,9.06-1.45c2.7-0.96,4.92-2.29,6.67-3.97c1.75-1.68,3.09-3.64,4.03-5.86c0.94-2.22,1.41-4.61,1.41-7.18
		c0-3.39-0.68-6.46-2.05-9.21c-1.37-2.75-3.45-4.97-6.24-6.68C387.45,354.39,384.15,353.53,380.34,353.53z M375.91,366.71h4.03
		c1.88,0,3.24,0.49,4.07,1.46c0.83,0.98,1.25,2.25,1.25,3.81c0,3.52-2.62,5.27-7.87,5.27c-4.96,0-8.68-0.73-11.17-2.2l2.12-1.61
		c1.71,0.78,4.72,1.17,9.05,1.17c2.1,0,3.51-0.23,4.23-0.7c0.72-0.46,1.08-1.11,1.08-1.94c0-0.81-0.2-1.45-0.6-1.92
		c-0.4-0.48-1.14-0.71-2.21-0.71h-3.96c-3.37,0-6.42-0.55-9.14-1.65s-4.96-2.61-6.7-4.54c-1.75-1.93-3.08-4.16-4.01-6.7
		c-0.93-2.54-1.39-5.27-1.39-8.2c0-2.34,0.33-4.56,0.99-6.67c0.66-2.1,1.65-4.03,2.98-5.79s2.93-3.28,4.8-4.56
		c1.87-1.28,4.09-2.28,6.67-3c2.58-0.72,5.37-1.08,8.37-1.08c4.71,0,9.12,0.71,13.22,2.14c4.1,1.43,7.52,3.42,10.25,5.99l-2.12,1.57
		c-2.49-2.25-5.6-3.99-9.34-5.22c-3.73-1.23-7.74-1.85-12.01-1.85c-3.34,0-6.37,0.48-9.06,1.45c-2.7,0.96-4.92,2.29-6.67,3.97
		s-3.09,3.64-4.03,5.86c-0.94,2.22-1.41,4.61-1.41,7.18c0,3.44,0.7,6.54,2.09,9.3c1.39,2.76,3.52,4.97,6.37,6.65
		C368.62,365.88,372,366.71,375.91,366.71z M375.91,356.17h4.17c4.96,0,8.83,1.51,11.63,4.54c2.79,3.03,4.19,6.79,4.19,11.28
		c0,4.57-1.62,8.34-4.87,11.33c-3.25,2.99-7.8,4.49-13.66,4.49c-3.91,0-7.56-0.54-10.95-1.61c-3.39-1.07-6.21-2.59-8.46-4.54
		l2.05-1.65c2,1.64,4.52,2.91,7.56,3.81c3.04,0.9,6.3,1.35,9.8,1.35c5.15,0,9.09-1.23,11.81-3.7c2.72-2.47,4.08-5.63,4.08-9.48
		c0-3.81-1.14-6.96-3.42-9.45s-5.55-3.74-9.8-3.74h-4.14c-3.57,0-6.24-0.98-8.02-2.93c-1.78-1.95-2.67-4.49-2.67-7.62
		c0-3.12,1.1-5.66,3.31-7.62c2.21-1.95,5.52-2.93,9.94-2.93c3.1,0,5.98,0.36,8.64,1.08c2.66,0.72,4.86,1.75,6.59,3.09l-2.09,1.61
		c-3.05-2.1-7.43-3.15-13.15-3.15c-3.69,0-6.38,0.73-8.07,2.18c-1.7,1.45-2.54,3.36-2.54,5.73c0,2.39,0.63,4.31,1.89,5.75
		C370.99,355.45,373.05,356.17,375.91,356.17z M375.91,361.44h4.03c3.56,0,6.24,0.99,8.02,2.97s2.67,4.5,2.67,7.58
		c0,3.13-1.1,5.66-3.31,7.62c-2.21,1.95-5.52,2.93-9.94,2.93c-3.1,0-5.99-0.36-8.66-1.08c-2.67-0.72-4.88-1.75-6.61-3.09l2.09-1.61
		c3.05,2.1,7.45,3.15,13.18,3.15c3.69,0,6.38-0.73,8.07-2.18s2.54-3.36,2.54-5.73c0-2.37-0.63-4.28-1.9-5.73
		c-1.27-1.45-3.33-2.18-6.19-2.18h-3.99c-5.01,0-8.92-1.5-11.74-4.49c-2.82-2.99-4.23-6.77-4.23-11.33c0-4.56,1.62-8.34,4.87-11.33
		s7.8-4.49,13.66-4.49c3.91,0,7.55,0.54,10.93,1.61c3.38,1.07,6.2,2.59,8.44,4.54l-2.05,1.65c-2-1.64-4.52-2.91-7.54-3.81
		c-3.03-0.9-6.29-1.35-9.78-1.35c-5.15,0-9.09,1.23-11.81,3.7c-2.72,2.47-4.08,5.63-4.08,9.48c0,3.83,1.15,6.99,3.44,9.47
		S371.61,361.44,375.91,361.44z"/>
</g>
<g class="st0">
	<path class="st5" d="M505.31,347.56c3.59,0,6.45,1.25,8.57,3.74s3.19,5.84,3.19,10.03c0,5.22-1.09,10.52-3.28,15.89
		c-2.19,5.37-4.94,9.5-8.26,12.38c-3.25,2.83-7.1,4.25-11.57,4.25c-3.86,0-6.89-1.15-9.1-3.46c-2.21-2.31-3.31-5.46-3.31-9.47
		c0-5,1.15-10.22,3.44-15.64s5.18-9.7,8.64-12.85C497.19,349.19,501.08,347.56,505.31,347.56z M504.39,355.4
		c-2.91,0-5.83,2.62-8.79,7.87c-1.49,2.69-2.72,5.59-3.7,8.72c-0.98,3.13-1.46,5.76-1.46,7.91c0,1.76,0.41,3.17,1.23,4.23
		c0.82,1.06,1.9,1.59,3.24,1.59c2.88,0,5.6-2.23,8.17-6.7c1.54-2.66,2.81-5.69,3.83-9.08c1.01-3.39,1.52-6.34,1.52-8.83
		C508.42,357.3,507.08,355.4,504.39,355.4z"/>
	<path class="st5" d="M541.61,347.56c3.59,0,6.45,1.25,8.57,3.74s3.19,5.84,3.19,10.03c0,5.22-1.09,10.52-3.28,15.89
		c-2.19,5.37-4.94,9.5-8.26,12.38c-3.25,2.83-7.1,4.25-11.57,4.25c-3.86,0-6.89-1.15-9.1-3.46c-2.21-2.31-3.31-5.46-3.31-9.47
		c0-5,1.15-10.22,3.44-15.64s5.18-9.7,8.64-12.85C533.49,349.19,537.38,347.56,541.61,347.56z M540.69,355.4
		c-2.91,0-5.83,2.62-8.79,7.87c-1.49,2.69-2.72,5.59-3.7,8.72c-0.98,3.13-1.46,5.76-1.46,7.91c0,1.76,0.41,3.17,1.23,4.23
		c0.82,1.06,1.9,1.59,3.24,1.59c2.88,0,5.6-2.23,8.17-6.7c1.54-2.66,2.81-5.69,3.83-9.08c1.01-3.39,1.52-6.34,1.52-8.83
		C544.72,357.3,543.38,355.4,540.69,355.4z"/>
	<path class="st5" d="M574.75,356.31h-11.54c-3.17,0-4.76-1.12-4.76-3.37c0-1.54,0.56-2.73,1.68-3.59c1.12-0.85,2.69-1.28,4.69-1.28
		h14.54c4.2,0,6.3,1.51,6.3,4.54c0,1.07-0.42,2.31-1.25,3.7l-19.96,33l-0.55,0.95c-1.37,2.22-3.08,3.33-5.13,3.33
		c-1.07,0-1.96-0.35-2.67-1.06c-0.71-0.71-1.06-1.59-1.06-2.64c0-0.93,0.55-2.28,1.65-4.06L574.75,356.31z"/>
	<path class="st5" d="M605.03,385.1h4.03c3.08,0,4.61,1.07,4.61,3.22c0,1.49-0.55,2.66-1.65,3.5c-1.1,0.84-2.61,1.26-4.54,1.26
		h-4.69c-2.1,0-3.53-0.82-4.28-2.45c-1.83,1.64-3.6,2.45-5.31,2.45h-4.17c-2.69,0-4.85-0.96-6.5-2.88
		c-1.65-1.92-2.47-4.42-2.47-7.53c0-4.69,1.62-8.88,4.85-12.58c3.24-3.7,6.89-5.55,10.97-5.55c3.12,0,5.41,1.09,6.85,3.26
		c1.22-1.83,2.82-2.75,4.8-2.75c1.07,0,1.97,0.34,2.69,1.03c0.72,0.68,1.08,1.53,1.08,2.53c0,0.68-0.2,1.5-0.59,2.45l-0.4,0.99
		L605.03,385.1z M591.74,385.28h0.92c2,0,3.33-0.82,3.99-2.45l2.56-6.34c0.34-0.83,0.51-1.53,0.51-2.09c0-0.66-0.32-1.23-0.97-1.72
		c-0.65-0.49-1.42-0.73-2.33-0.73c-1.78,0-3.52,1.04-5.2,3.11c-1.68,2.08-2.53,4.22-2.53,6.45
		C588.7,384.02,589.71,385.28,591.74,385.28z"/>
	<path class="st5" d="M645.31,367.34l-10.99,26.99h25.38c3.39,0,5.09,1.17,5.09,3.52c0,1.66-0.6,2.95-1.79,3.86
		c-1.2,0.92-2.86,1.37-4.98,1.37h-27.25l-0.44,1.03c-1.71,3.81-3.05,6.48-4.03,8.02c-0.98,1.54-2.25,3.03-3.81,4.47
		c-4.08,3.74-8.77,5.6-14.06,5.6c-4.3,0-7.84-1.28-10.64-3.84c-2.79-2.56-4.19-5.82-4.19-9.78c0-2.47,0.6-4.77,1.79-6.92
		c1.2-2.15,2.82-3.82,4.87-5.02c2.66-1.54,6.27-2.31,10.84-2.31h12.93l10.95-26.99h-4.39h-0.99c-2.73,0-4.1-1.21-4.1-3.63
		c0-1.59,0.6-2.84,1.79-3.75c1.2-0.92,2.86-1.37,4.98-1.37h6.26l1.68-4.14c3.2-7.91,8.08-11.87,14.65-11.87
		c3.34,0,6.13,1.06,8.35,3.17c2.22,2.11,3.33,4.76,3.33,7.93c0,4.05-1.61,7.34-4.83,9.87c-3.22,2.53-7.41,3.79-12.56,3.79H645.31z
		 M620.45,403.08h-9.63c-4.79,0-7.18,1.7-7.18,5.09c0,1.39,0.53,2.56,1.58,3.5c1.05,0.94,2.37,1.41,3.96,1.41
		c2.17,0,4.27-0.9,6.28-2.69C617.46,408.59,619.13,406.16,620.45,403.08z M648.87,358.58h1.68c1.83,0,3.4-0.46,4.71-1.37
		c1.31-0.92,1.96-2.03,1.96-3.35c0-1.95-0.92-2.93-2.75-2.93c-1.66,0-3.19,1.71-4.58,5.13L648.87,358.58z"/>
	<path class="st5" d="M695.04,368.07l3.37,4.25l1.94,2.34c3.76,4.64,5.64,9.55,5.64,14.72c0,5.03-1.66,9.44-4.98,13.22
		c-4.54,5.2-10.49,7.8-17.83,7.8c-5.69,0-10.35-1.75-13.99-5.25c-3.64-3.5-5.46-7.99-5.46-13.46c0-6.69,2.83-12.27,8.5-16.74
		c3-2.37,5.77-3.55,8.31-3.55c1.32,0,2.39,0.38,3.22,1.14c0.83,0.76,1.25,1.73,1.25,2.93c0,1.61-0.95,3-2.86,4.17l-2.93,1.79
		c-1.68,1.05-3.09,2.51-4.21,4.39c-1.12,1.88-1.68,3.74-1.68,5.57c0,2.91,0.98,5.3,2.95,7.2c1.96,1.89,4.46,2.84,7.49,2.84
		c3.34,0,6.25-1.25,8.72-3.75c2.47-2.5,3.7-5.45,3.7-8.84c0-2.15-0.5-4.1-1.5-5.86c-1-1.76-3.16-4.48-6.48-8.17
		c-2.32-2.56-3.98-4.81-4.98-6.74h-9.89c-3.37,0-5.05-1.16-5.05-3.48c0-1.68,0.59-2.98,1.78-3.9c1.18-0.92,2.85-1.37,5-1.37h6.26
		c0.49-4.83,2.7-8.83,6.63-11.99c3.93-3.16,8.64-4.74,14.14-4.74c4.12,0,7.49,1.14,10.09,3.41c2.6,2.27,3.9,5.21,3.9,8.83
		c0,4.81-2.06,8.5-6.19,11.06c-2.34,1.46-6.07,2.2-11.17,2.2H695.04z M690.64,359.32h8.79c4.96,0,7.43-1.44,7.43-4.32
		c0-1.12-0.51-2.03-1.52-2.71c-1.01-0.68-2.36-1.03-4.05-1.03c-2.64,0-5.04,0.82-7.2,2.45
		C691.94,355.35,690.79,357.22,690.64,359.32z"/>
</g>
<g>
	<path d="M219.13,486.85c-2.54-5.03-3.81-10.77-3.81-17.21s1.27-12.18,3.81-17.21c2.54-5.03,6.03-8.91,10.47-11.65
		c4.44-2.73,9.45-4.1,15.01-4.1s10.57,1.37,15.01,4.1c4.44,2.73,7.93,6.62,10.47,11.65c2.54,5.03,3.81,10.77,3.81,17.21
		s-1.27,12.18-3.81,17.21c-2.54,5.03-6.03,8.91-10.47,11.65c-4.44,2.73-9.45,4.1-15.01,4.1s-10.57-1.37-15.01-4.1
		C225.16,495.76,221.67,491.88,219.13,486.85z M219.97,457.24c-1.34,3.8-2.01,7.93-2.01,12.4s0.67,8.6,2.01,12.4
		c1.34,3.8,3.19,7,5.55,9.61c2.36,2.61,5.18,4.65,8.46,6.12c3.28,1.46,6.83,2.2,10.64,2.2s7.35-0.73,10.64-2.2s6.1-3.5,8.46-6.12
		c2.36-2.61,4.21-5.82,5.55-9.61c1.34-3.8,2.01-7.93,2.01-12.4s-0.67-8.6-2.01-12.4c-1.34-3.8-3.19-7-5.55-9.61
		c-2.36-2.61-5.18-4.65-8.46-6.12s-6.83-2.2-10.64-2.2s-7.35,0.73-10.64,2.2c-3.28,1.46-6.1,3.5-8.46,6.12
		C223.16,450.24,221.31,453.45,219.97,457.24z M265.54,455.08c2.06,4.21,3.09,9.06,3.09,14.56s-1.03,10.35-3.09,14.56
		c-2.06,4.21-4.91,7.45-8.55,9.72c-3.64,2.27-7.76,3.41-12.38,3.41s-8.74-1.14-12.38-3.41c-3.64-2.27-6.49-5.51-8.55-9.72
		c-2.06-4.21-3.09-9.06-3.09-14.56s1.03-10.35,3.09-14.56c2.06-4.21,4.91-7.45,8.55-9.72c3.64-2.27,7.76-3.41,12.38-3.41
		s8.74,1.13,12.38,3.41C260.63,447.63,263.48,450.87,265.54,455.08z M229.18,451.44c-3.97,4.57-5.95,10.63-5.95,18.2
		s1.98,13.64,5.95,18.2c3.97,4.57,9.11,6.85,15.44,6.85c6.32,0,11.47-2.28,15.44-6.85c3.97-4.56,5.95-10.63,5.95-18.2
		s-1.98-13.64-5.95-18.2c-3.97-4.56-9.11-6.85-15.44-6.85C238.29,444.59,233.15,446.87,229.18,451.44z M258.18,453.31
		c3.45,4.05,5.18,9.5,5.18,16.33s-1.73,12.28-5.18,16.33s-7.98,6.08-13.57,6.08c-5.59,0-10.11-2.03-13.57-6.08
		c-3.46-4.05-5.18-9.5-5.18-16.33s1.73-12.28,5.18-16.33c3.45-4.05,7.98-6.08,13.57-6.08C250.21,447.23,254.73,449.25,258.18,453.31
		z M232.91,455.16c-2.94,3.53-4.41,8.36-4.41,14.48s1.47,10.96,4.41,14.48c2.94,3.53,6.84,5.29,11.7,5.29
		c4.86,0,8.76-1.76,11.7-5.29c2.94-3.53,4.41-8.36,4.41-14.48s-1.47-10.96-4.41-14.48c-2.94-3.53-6.84-5.29-11.7-5.29
		C239.76,449.86,235.86,451.63,232.91,455.16z M254.45,457.02c2.43,3.02,3.64,7.22,3.64,12.62s-1.21,9.6-3.64,12.62
		c-2.43,3.01-5.71,4.52-9.83,4.52c-4.13,0-7.4-1.51-9.83-4.52c-2.43-3.02-3.64-7.22-3.64-12.62s1.21-9.6,3.64-12.62
		c2.43-3.01,5.71-4.52,9.83-4.52C248.74,452.5,252.02,454.01,254.45,457.02z M236.65,458.87c-1.92,2.49-2.87,6.08-2.87,10.77
		s0.96,8.28,2.87,10.77s4.57,3.74,7.97,3.74c3.39,0,6.05-1.25,7.97-3.74c1.92-2.49,2.87-6.08,2.87-10.77s-0.96-8.28-2.87-10.77
		c-1.92-2.49-4.57-3.74-7.97-3.74C241.22,455.14,238.57,456.38,236.65,458.87z"/>
	<path d="M282.87,486.85c-2.54-5.03-3.81-10.77-3.81-17.21s1.27-12.18,3.81-17.21c2.54-5.03,6.03-8.91,10.47-11.65
		c4.44-2.73,9.45-4.1,15.01-4.1s10.57,1.37,15.01,4.1c4.44,2.73,7.93,6.62,10.47,11.65c2.54,5.03,3.81,10.77,3.81,17.21
		s-1.27,12.18-3.81,17.21c-2.54,5.03-6.03,8.91-10.47,11.65c-4.44,2.73-9.45,4.1-15.01,4.1s-10.57-1.37-15.01-4.1
		C288.9,495.76,285.41,491.88,282.87,486.85z M283.72,457.24c-1.34,3.8-2.01,7.93-2.01,12.4s0.67,8.6,2.01,12.4
		c1.34,3.8,3.19,7,5.55,9.61c2.36,2.61,5.18,4.65,8.46,6.12c3.28,1.46,6.83,2.2,10.64,2.2s7.35-0.73,10.64-2.2s6.1-3.5,8.46-6.12
		c2.36-2.61,4.21-5.82,5.55-9.61c1.34-3.8,2.01-7.93,2.01-12.4s-0.67-8.6-2.01-12.4c-1.34-3.8-3.19-7-5.55-9.61
		c-2.36-2.61-5.18-4.65-8.46-6.12s-6.83-2.2-10.64-2.2s-7.35,0.73-10.64,2.2c-3.28,1.46-6.1,3.5-8.46,6.12
		C286.91,450.24,285.06,453.45,283.72,457.24z M329.29,455.08c2.06,4.21,3.09,9.06,3.09,14.56s-1.03,10.35-3.09,14.56
		c-2.06,4.21-4.91,7.45-8.55,9.72c-3.64,2.27-7.76,3.41-12.38,3.41s-8.74-1.14-12.38-3.41c-3.64-2.27-6.49-5.51-8.55-9.72
		c-2.06-4.21-3.09-9.06-3.09-14.56s1.03-10.35,3.09-14.56c2.06-4.21,4.91-7.45,8.55-9.72c3.64-2.27,7.76-3.41,12.38-3.41
		s8.74,1.13,12.38,3.41C324.38,447.63,327.23,450.87,329.29,455.08z M292.93,451.44c-3.97,4.57-5.95,10.63-5.95,18.2
		s1.98,13.64,5.95,18.2c3.97,4.57,9.11,6.85,15.44,6.85c6.32,0,11.47-2.28,15.44-6.85c3.97-4.56,5.95-10.63,5.95-18.2
		s-1.98-13.64-5.95-18.2c-3.97-4.56-9.11-6.85-15.44-6.85C302.04,444.59,296.89,446.87,292.93,451.44z M321.93,453.31
		c3.45,4.05,5.18,9.5,5.18,16.33s-1.73,12.28-5.18,16.33s-7.98,6.08-13.57,6.08c-5.59,0-10.11-2.03-13.57-6.08
		c-3.46-4.05-5.18-9.5-5.18-16.33s1.73-12.28,5.18-16.33c3.45-4.05,7.98-6.08,13.57-6.08C313.95,447.23,318.48,449.25,321.93,453.31
		z M296.66,455.16c-2.94,3.53-4.41,8.36-4.41,14.48s1.47,10.96,4.41,14.48c2.94,3.53,6.84,5.29,11.7,5.29
		c4.86,0,8.76-1.76,11.7-5.29c2.94-3.53,4.41-8.36,4.41-14.48s-1.47-10.96-4.41-14.48c-2.94-3.53-6.84-5.29-11.7-5.29
		C303.5,449.86,299.6,451.63,296.66,455.16z M318.19,457.02c2.43,3.02,3.64,7.22,3.64,12.62s-1.21,9.6-3.64,12.62
		c-2.43,3.01-5.71,4.52-9.83,4.52c-4.13,0-7.4-1.51-9.83-4.52c-2.43-3.02-3.64-7.22-3.64-12.62s1.21-9.6,3.64-12.62
		c2.43-3.01,5.71-4.52,9.83-4.52C312.49,452.5,315.77,454.01,318.19,457.02z M300.4,458.87c-1.92,2.49-2.87,6.08-2.87,10.77
		s0.96,8.28,2.87,10.77s4.57,3.74,7.97,3.74c3.39,0,6.05-1.25,7.97-3.74c1.92-2.49,2.87-6.08,2.87-10.77s-0.96-8.28-2.87-10.77
		c-1.92-2.49-4.57-3.74-7.97-3.74C304.97,455.14,302.31,456.38,300.4,458.87z"/>
	<path d="M362.76,439.32l-0.51,2.64h-22.23v-2.64H362.76z M361.58,444.59l-0.62,2.64h-20.95v-2.64H361.58z M360.34,449.86
		l-0.62,2.64h-19.7v-2.64H360.34z M364.62,439.32h2.71l-14.94,60.64h-2.71L364.62,439.32z M370.04,439.32h2.75l-14.94,60.64h-2.75
		L370.04,439.32z M375.5,439.32h2.71l-14.94,60.64h-2.71L375.5,439.32z M380.92,439.32h2.75l-14.94,60.64h-2.75L380.92,439.32z"/>
	<path d="M517.28,473.96v26h-2.64v-26c0-4.98-1.16-9.43-3.48-13.35c-2.32-3.92-5.48-6.95-9.48-9.08c-4-2.14-8.47-3.2-13.4-3.2
		c-4.74,0-9.07,1.13-13,3.41s-7.02,5.34-9.27,9.21c-2.25,3.87-3.37,8.09-3.37,12.65c0,3,0.48,5.85,1.45,8.55
		c0.96,2.7,2.28,5.05,3.96,7.07c1.67,2.01,3.6,3.75,5.79,5.22c2.18,1.46,4.54,2.58,7.07,3.33c2.53,0.76,5.1,1.13,7.71,1.13
		c2.88,0,5.62-0.55,8.2-1.65v2.71c-2.71,0.95-5.49,1.43-8.35,1.43c-2.95,0-5.83-0.42-8.62-1.25c-2.8-0.83-5.38-2.06-7.76-3.68
		c-2.38-1.62-4.47-3.54-6.28-5.75c-1.81-2.21-3.22-4.79-4.25-7.75s-1.54-6.08-1.54-9.38c0-3.78,0.71-7.39,2.14-10.82
		c1.43-3.43,3.38-6.4,5.86-8.9c2.48-2.5,5.48-4.49,9.01-5.97c3.53-1.48,7.28-2.22,11.26-2.22c4.05,0,7.86,0.68,11.43,2.05
		s6.64,3.27,9.23,5.69c2.59,2.43,4.63,5.41,6.12,8.95S517.28,469.79,517.28,473.96z M512,473.96v26h-2.64v-26
		c0-4.03-0.92-7.6-2.76-10.71c-1.84-3.11-4.36-5.5-7.56-7.16c-3.2-1.66-6.79-2.49-10.77-2.49c-3.78,0-7.24,0.9-10.36,2.69
		c-3.12,1.79-5.57,4.22-7.34,7.27s-2.66,6.4-2.66,10.03c0,3.12,0.57,5.98,1.72,8.55c1.15,2.58,2.69,4.69,4.63,6.35
		c1.94,1.66,4.15,2.95,6.63,3.86c2.48,0.92,5.07,1.37,7.78,1.37c2.76,0,5.47-0.57,8.13-1.72v2.67c-2.78,1.05-5.52,1.57-8.2,1.57
		c-4.22,0-8.11-0.95-11.65-2.86s-6.37-4.6-8.5-8.09s-3.19-7.4-3.19-11.72c0-3.08,0.59-6.01,1.78-8.79s2.79-5.19,4.82-7.21
		c2.03-2.03,4.47-3.64,7.32-4.83c2.86-1.2,5.88-1.79,9.08-1.79c4.47,0,8.5,0.95,12.1,2.86s6.44,4.61,8.51,8.13
		S512,469.47,512,473.96z M506.73,473.96v26h-2.64v-26c0-4.61-1.48-8.28-4.43-11c-2.95-2.72-6.75-4.08-11.39-4.08
		c-4.3,0-7.89,1.43-10.77,4.28c-2.88,2.86-4.32,6.34-4.32,10.44c0,2.49,0.43,4.72,1.3,6.7c0.87,1.98,2.04,3.57,3.53,4.76
		c1.49,1.2,3.16,2.11,5,2.73c1.84,0.62,3.79,0.93,5.84,0.93c2.78,0,5.43-0.65,7.95-1.94v2.78c-2.64,1.1-5.3,1.65-7.98,1.65
		c-2.42,0-4.71-0.37-6.88-1.12c-2.17-0.75-4.11-1.83-5.82-3.26c-1.71-1.43-3.06-3.28-4.06-5.57c-1-2.28-1.5-4.84-1.5-7.67
		c0-4.81,1.7-8.91,5.11-12.29c3.41-3.38,7.61-5.07,12.62-5.07c3.52,0,6.67,0.71,9.45,2.14c2.78,1.43,4.98,3.5,6.59,6.21
		S506.73,470.42,506.73,473.96z M498.82,473.96c0-3.12-0.96-5.54-2.89-7.25s-4.48-2.56-7.65-2.56c-2.69,0-4.99,0.93-6.92,2.78
		s-2.89,4.08-2.89,6.67c0,1.46,0.2,2.78,0.59,3.94c0.39,1.16,0.92,2.12,1.59,2.89c0.67,0.77,1.47,1.4,2.4,1.9
		c0.93,0.5,1.9,0.86,2.91,1.08s2.09,0.33,3.24,0.33c2.78,0,5.32-0.68,7.62-2.05v2.64c-2.37,1.25-4.92,1.87-7.65,1.87
		c-1.76,0-3.41-0.24-4.96-0.71c-1.55-0.48-2.96-1.2-4.23-2.16c-1.27-0.96-2.28-2.28-3.02-3.96c-0.75-1.67-1.12-3.59-1.12-5.77
		c0-3.37,1.18-6.23,3.55-8.57s5.33-3.52,8.9-3.52c3.93,0,7.11,1.1,9.54,3.31c2.43,2.21,3.64,5.25,3.64,9.14v26h-2.64V473.96z"/>
	<path d="M525.53,439.32h2.64v60.64h-2.64V439.32z M530.8,439.32h2.64v60.64h-2.64V439.32z M536.08,439.32h2.64v60.64h-2.64V439.32z
		 M541.35,439.32h2.64v47.46h21.09v2.64h-21.09v2.64h21.09v2.64h-21.09v2.64h21.09v2.64h-23.73V439.32z"/>
	<path d="M595.48,463.05h-4.43c-1.88,0-3.24-0.48-4.07-1.45c-0.83-0.96-1.25-2.24-1.25-3.83c0-3.52,2.62-5.27,7.87-5.27
		c4.93,0,8.64,0.73,11.13,2.2l-2.12,1.61c-1.71-0.78-4.71-1.17-9.01-1.17c-2.1,0-3.51,0.23-4.23,0.7c-0.72,0.46-1.08,1.11-1.08,1.94
		s0.2,1.48,0.59,1.94c0.39,0.46,1.11,0.7,2.16,0.7h4.54c3.29,0,6.27,0.56,8.92,1.68c2.65,1.12,4.83,2.66,6.54,4.6
		c1.71,1.94,3.02,4.17,3.92,6.7c0.9,2.53,1.35,5.23,1.35,8.11c0,2.34-0.33,4.57-0.99,6.67s-1.65,4.03-2.98,5.79
		c-1.33,1.76-2.93,3.28-4.8,4.56c-1.87,1.28-4.09,2.28-6.67,3c-2.58,0.72-5.37,1.08-8.37,1.08c-4.71,0-9.12-0.71-13.24-2.14
		c-4.11-1.43-7.54-3.42-10.27-5.99l2.12-1.58c2.49,2.25,5.61,3.99,9.36,5.22c3.75,1.23,7.76,1.85,12.03,1.85
		c3.34,0,6.37-0.48,9.06-1.45c2.7-0.96,4.92-2.29,6.67-3.97c1.75-1.68,3.09-3.64,4.03-5.86c0.94-2.22,1.41-4.61,1.41-7.18
		c0-3.39-0.68-6.46-2.05-9.21c-1.37-2.75-3.45-4.97-6.24-6.68C602.59,463.9,599.29,463.05,595.48,463.05z M591.05,476.23h4.03
		c1.88,0,3.24,0.49,4.07,1.46s1.25,2.25,1.25,3.81c0,3.52-2.62,5.27-7.87,5.27c-4.96,0-8.68-0.73-11.17-2.2l2.12-1.61
		c1.71,0.78,4.72,1.17,9.05,1.17c2.1,0,3.51-0.23,4.23-0.7c0.72-0.46,1.08-1.11,1.08-1.94c0-0.81-0.2-1.45-0.6-1.92
		c-0.4-0.48-1.14-0.71-2.21-0.71h-3.96c-3.37,0-6.42-0.55-9.14-1.65s-4.96-2.61-6.7-4.54c-1.75-1.93-3.08-4.16-4.01-6.7
		s-1.39-5.27-1.39-8.2c0-2.34,0.33-4.57,0.99-6.67s1.65-4.03,2.98-5.79s2.93-3.28,4.8-4.56c1.87-1.28,4.09-2.28,6.67-3
		c2.58-0.72,5.37-1.08,8.37-1.08c4.71,0,9.12,0.71,13.22,2.14c4.1,1.43,7.52,3.42,10.25,5.99l-2.12,1.57
		c-2.49-2.25-5.6-3.99-9.34-5.22c-3.73-1.23-7.74-1.85-12.01-1.85c-3.34,0-6.37,0.48-9.06,1.45c-2.7,0.96-4.92,2.29-6.67,3.97
		s-3.09,3.64-4.03,5.86s-1.41,4.61-1.41,7.18c0,3.44,0.7,6.54,2.09,9.3s3.52,4.97,6.37,6.65
		C583.76,475.39,587.14,476.23,591.05,476.23z M591.05,465.68h4.17c4.96,0,8.83,1.51,11.63,4.54c2.79,3.03,4.19,6.79,4.19,11.28
		c0,4.57-1.62,8.34-4.87,11.33c-3.25,2.99-7.8,4.49-13.66,4.49c-3.91,0-7.56-0.54-10.95-1.61s-6.21-2.59-8.46-4.54l2.05-1.65
		c2,1.64,4.52,2.91,7.56,3.81c3.04,0.9,6.3,1.36,9.8,1.36c5.15,0,9.09-1.23,11.81-3.7c2.72-2.47,4.08-5.63,4.08-9.48
		c0-3.81-1.14-6.96-3.42-9.45s-5.55-3.74-9.8-3.74h-4.14c-3.57,0-6.24-0.98-8.02-2.93s-2.67-4.49-2.67-7.62s1.1-5.66,3.31-7.62
		s5.52-2.93,9.94-2.93c3.1,0,5.98,0.36,8.64,1.08c2.66,0.72,4.86,1.75,6.59,3.09l-2.09,1.61c-3.05-2.1-7.43-3.15-13.15-3.15
		c-3.69,0-6.38,0.73-8.07,2.18c-1.7,1.45-2.54,3.36-2.54,5.73c0,2.39,0.63,4.31,1.89,5.75
		C586.13,464.96,588.19,465.68,591.05,465.68z M591.05,470.96h4.03c3.56,0,6.24,0.99,8.02,2.97s2.67,4.5,2.67,7.58
		c0,3.12-1.1,5.66-3.31,7.62c-2.21,1.95-5.52,2.93-9.94,2.93c-3.1,0-5.99-0.36-8.66-1.08c-2.67-0.72-4.88-1.75-6.61-3.09l2.09-1.61
		c3.05,2.1,7.45,3.15,13.18,3.15c3.69,0,6.38-0.73,8.07-2.18c1.7-1.45,2.54-3.36,2.54-5.73s-0.63-4.28-1.9-5.73
		c-1.27-1.45-3.33-2.18-6.19-2.18h-3.99c-5.01,0-8.92-1.5-11.74-4.49c-2.82-2.99-4.23-6.77-4.23-11.33s1.62-8.34,4.87-11.33
		c3.25-2.99,7.8-4.49,13.66-4.49c3.91,0,7.55,0.54,10.93,1.61s6.2,2.59,8.44,4.54l-2.05,1.65c-2-1.63-4.52-2.91-7.54-3.81
		c-3.03-0.9-6.29-1.35-9.78-1.35c-5.15,0-9.09,1.23-11.81,3.7c-2.72,2.47-4.08,5.63-4.08,9.49c0,3.83,1.15,6.99,3.44,9.47
		C583.45,469.72,586.75,470.96,591.05,470.96z"/>
</g>
</svg>
